<mxfile host="app.diagrams.net" agent="Mozilla/5.0 (Windows NT 10.0; Win64; x64) AppleWebKit/537.36 (KHTML, like Gecko) Chrome/131.0.0.0 Safari/537.36" version="24.9.1">
  <diagram name="Page-1" id="jpWiwHyw5lLUtskKtdno">
    <mxGraphModel dx="1221" dy="652" grid="1" gridSize="10" guides="1" tooltips="1" connect="1" arrows="1" fold="1" page="1" pageScale="1" pageWidth="850" pageHeight="1100" math="0" shadow="0">
      <root>
        <mxCell id="0" />
        <mxCell id="1" parent="0" />
        <mxCell id="BkDnircxusLfPPrno_NL-1" value="" style="shape=table;startSize=0;container=1;collapsible=0;childLayout=tableLayout;fontSize=16;" vertex="1" parent="1">
          <mxGeometry x="250" y="70" width="230" height="510" as="geometry" />
        </mxCell>
        <mxCell id="BkDnircxusLfPPrno_NL-2" value="" style="shape=tableRow;horizontal=0;startSize=0;swimlaneHead=0;swimlaneBody=0;strokeColor=inherit;top=0;left=0;bottom=0;right=0;collapsible=0;dropTarget=0;fillColor=none;points=[[0,0.5],[1,0.5]];portConstraint=eastwest;fontSize=16;" vertex="1" parent="BkDnircxusLfPPrno_NL-1">
          <mxGeometry width="230" height="60" as="geometry" />
        </mxCell>
        <mxCell id="BkDnircxusLfPPrno_NL-3" value="" style="shape=partialRectangle;html=1;whiteSpace=wrap;connectable=0;strokeColor=inherit;overflow=hidden;fillColor=none;top=0;left=0;bottom=0;right=0;pointerEvents=1;fontSize=16;" vertex="1" parent="BkDnircxusLfPPrno_NL-2">
          <mxGeometry width="115" height="60" as="geometry">
            <mxRectangle width="115" height="60" as="alternateBounds" />
          </mxGeometry>
        </mxCell>
        <mxCell id="BkDnircxusLfPPrno_NL-4" value="&lt;font style=&quot;font-size: 9px;&quot;&gt;Dokumen Input ataupun Output pada proses manual dan proses komputer&lt;/font&gt;" style="shape=partialRectangle;html=1;whiteSpace=wrap;connectable=0;strokeColor=inherit;overflow=hidden;fillColor=none;top=0;left=0;bottom=0;right=0;pointerEvents=1;fontSize=16;" vertex="1" parent="BkDnircxusLfPPrno_NL-2">
          <mxGeometry x="115" width="115" height="60" as="geometry">
            <mxRectangle width="115" height="60" as="alternateBounds" />
          </mxGeometry>
        </mxCell>
        <mxCell id="BkDnircxusLfPPrno_NL-6" value="" style="shape=tableRow;horizontal=0;startSize=0;swimlaneHead=0;swimlaneBody=0;strokeColor=inherit;top=0;left=0;bottom=0;right=0;collapsible=0;dropTarget=0;fillColor=none;points=[[0,0.5],[1,0.5]];portConstraint=eastwest;fontSize=16;" vertex="1" parent="BkDnircxusLfPPrno_NL-1">
          <mxGeometry y="60" width="230" height="50" as="geometry" />
        </mxCell>
        <mxCell id="BkDnircxusLfPPrno_NL-7" value="" style="shape=partialRectangle;html=1;whiteSpace=wrap;connectable=0;strokeColor=inherit;overflow=hidden;fillColor=none;top=0;left=0;bottom=0;right=0;pointerEvents=1;fontSize=16;" vertex="1" parent="BkDnircxusLfPPrno_NL-6">
          <mxGeometry width="115" height="50" as="geometry">
            <mxRectangle width="115" height="50" as="alternateBounds" />
          </mxGeometry>
        </mxCell>
        <mxCell id="BkDnircxusLfPPrno_NL-8" value="&lt;font style=&quot;font-size: 10px;&quot;&gt;Proses Yang dilakukan Secara Manual&lt;/font&gt;" style="shape=partialRectangle;html=1;whiteSpace=wrap;connectable=0;strokeColor=inherit;overflow=hidden;fillColor=none;top=0;left=0;bottom=0;right=0;pointerEvents=1;fontSize=16;" vertex="1" parent="BkDnircxusLfPPrno_NL-6">
          <mxGeometry x="115" width="115" height="50" as="geometry">
            <mxRectangle width="115" height="50" as="alternateBounds" />
          </mxGeometry>
        </mxCell>
        <mxCell id="BkDnircxusLfPPrno_NL-10" value="" style="shape=tableRow;horizontal=0;startSize=0;swimlaneHead=0;swimlaneBody=0;strokeColor=inherit;top=0;left=0;bottom=0;right=0;collapsible=0;dropTarget=0;fillColor=none;points=[[0,0.5],[1,0.5]];portConstraint=eastwest;fontSize=16;" vertex="1" parent="BkDnircxusLfPPrno_NL-1">
          <mxGeometry y="110" width="230" height="80" as="geometry" />
        </mxCell>
        <mxCell id="BkDnircxusLfPPrno_NL-11" value="" style="shape=partialRectangle;html=1;whiteSpace=wrap;connectable=0;strokeColor=inherit;overflow=hidden;fillColor=none;top=0;left=0;bottom=0;right=0;pointerEvents=1;fontSize=16;" vertex="1" parent="BkDnircxusLfPPrno_NL-10">
          <mxGeometry width="115" height="80" as="geometry">
            <mxRectangle width="115" height="80" as="alternateBounds" />
          </mxGeometry>
        </mxCell>
        <mxCell id="BkDnircxusLfPPrno_NL-12" value="&lt;font style=&quot;font-size: 10px;&quot;&gt;Penyimpanan Database Dari Aplikasi&lt;/font&gt;" style="shape=partialRectangle;html=1;whiteSpace=wrap;connectable=0;strokeColor=inherit;overflow=hidden;fillColor=none;top=0;left=0;bottom=0;right=0;pointerEvents=1;fontSize=16;" vertex="1" parent="BkDnircxusLfPPrno_NL-10">
          <mxGeometry x="115" width="115" height="80" as="geometry">
            <mxRectangle width="115" height="80" as="alternateBounds" />
          </mxGeometry>
        </mxCell>
        <mxCell id="BkDnircxusLfPPrno_NL-14" style="shape=tableRow;horizontal=0;startSize=0;swimlaneHead=0;swimlaneBody=0;strokeColor=inherit;top=0;left=0;bottom=0;right=0;collapsible=0;dropTarget=0;fillColor=none;points=[[0,0.5],[1,0.5]];portConstraint=eastwest;fontSize=16;" vertex="1" parent="BkDnircxusLfPPrno_NL-1">
          <mxGeometry y="190" width="230" height="60" as="geometry" />
        </mxCell>
        <mxCell id="BkDnircxusLfPPrno_NL-15" style="shape=partialRectangle;html=1;whiteSpace=wrap;connectable=0;strokeColor=inherit;overflow=hidden;fillColor=none;top=0;left=0;bottom=0;right=0;pointerEvents=1;fontSize=16;" vertex="1" parent="BkDnircxusLfPPrno_NL-14">
          <mxGeometry width="115" height="60" as="geometry">
            <mxRectangle width="115" height="60" as="alternateBounds" />
          </mxGeometry>
        </mxCell>
        <mxCell id="BkDnircxusLfPPrno_NL-16" value="&lt;font style=&quot;font-size: 10px;&quot;&gt;Proses Komputer yang dilakukan secara komputerisasi&lt;/font&gt;" style="shape=partialRectangle;html=1;whiteSpace=wrap;connectable=0;strokeColor=inherit;overflow=hidden;fillColor=none;top=0;left=0;bottom=0;right=0;pointerEvents=1;fontSize=16;" vertex="1" parent="BkDnircxusLfPPrno_NL-14">
          <mxGeometry x="115" width="115" height="60" as="geometry">
            <mxRectangle width="115" height="60" as="alternateBounds" />
          </mxGeometry>
        </mxCell>
        <mxCell id="BkDnircxusLfPPrno_NL-21" style="shape=tableRow;horizontal=0;startSize=0;swimlaneHead=0;swimlaneBody=0;strokeColor=inherit;top=0;left=0;bottom=0;right=0;collapsible=0;dropTarget=0;fillColor=none;points=[[0,0.5],[1,0.5]];portConstraint=eastwest;fontSize=16;" vertex="1" parent="BkDnircxusLfPPrno_NL-1">
          <mxGeometry y="250" width="230" height="50" as="geometry" />
        </mxCell>
        <mxCell id="BkDnircxusLfPPrno_NL-22" style="shape=partialRectangle;html=1;whiteSpace=wrap;connectable=0;strokeColor=inherit;overflow=hidden;fillColor=none;top=0;left=0;bottom=0;right=0;pointerEvents=1;fontSize=16;" vertex="1" parent="BkDnircxusLfPPrno_NL-21">
          <mxGeometry width="115" height="50" as="geometry">
            <mxRectangle width="115" height="50" as="alternateBounds" />
          </mxGeometry>
        </mxCell>
        <mxCell id="BkDnircxusLfPPrno_NL-23" value="&lt;font style=&quot;font-size: 10px;&quot;&gt;Penghubung Alir Dokumen&amp;nbsp;&lt;/font&gt;" style="shape=partialRectangle;html=1;whiteSpace=wrap;connectable=0;strokeColor=inherit;overflow=hidden;fillColor=none;top=0;left=0;bottom=0;right=0;pointerEvents=1;fontSize=16;" vertex="1" parent="BkDnircxusLfPPrno_NL-21">
          <mxGeometry x="115" width="115" height="50" as="geometry">
            <mxRectangle width="115" height="50" as="alternateBounds" />
          </mxGeometry>
        </mxCell>
        <mxCell id="BkDnircxusLfPPrno_NL-25" style="shape=tableRow;horizontal=0;startSize=0;swimlaneHead=0;swimlaneBody=0;strokeColor=inherit;top=0;left=0;bottom=0;right=0;collapsible=0;dropTarget=0;fillColor=none;points=[[0,0.5],[1,0.5]];portConstraint=eastwest;fontSize=16;" vertex="1" parent="BkDnircxusLfPPrno_NL-1">
          <mxGeometry y="300" width="230" height="70" as="geometry" />
        </mxCell>
        <mxCell id="BkDnircxusLfPPrno_NL-26" style="shape=partialRectangle;html=1;whiteSpace=wrap;connectable=0;strokeColor=inherit;overflow=hidden;fillColor=none;top=0;left=0;bottom=0;right=0;pointerEvents=1;fontSize=16;" vertex="1" parent="BkDnircxusLfPPrno_NL-25">
          <mxGeometry width="115" height="70" as="geometry">
            <mxRectangle width="115" height="70" as="alternateBounds" />
          </mxGeometry>
        </mxCell>
        <mxCell id="BkDnircxusLfPPrno_NL-27" value="&lt;font style=&quot;font-size: 10px;&quot;&gt;Arah Alir Dokumen yang Tunggal&lt;/font&gt;" style="shape=partialRectangle;html=1;whiteSpace=wrap;connectable=0;strokeColor=inherit;overflow=hidden;fillColor=none;top=0;left=0;bottom=0;right=0;pointerEvents=1;fontSize=16;" vertex="1" parent="BkDnircxusLfPPrno_NL-25">
          <mxGeometry x="115" width="115" height="70" as="geometry">
            <mxRectangle width="115" height="70" as="alternateBounds" />
          </mxGeometry>
        </mxCell>
        <mxCell id="BkDnircxusLfPPrno_NL-29" style="shape=tableRow;horizontal=0;startSize=0;swimlaneHead=0;swimlaneBody=0;strokeColor=inherit;top=0;left=0;bottom=0;right=0;collapsible=0;dropTarget=0;fillColor=none;points=[[0,0.5],[1,0.5]];portConstraint=eastwest;fontSize=16;" vertex="1" parent="BkDnircxusLfPPrno_NL-1">
          <mxGeometry y="370" width="230" height="70" as="geometry" />
        </mxCell>
        <mxCell id="BkDnircxusLfPPrno_NL-30" style="shape=partialRectangle;html=1;whiteSpace=wrap;connectable=0;strokeColor=inherit;overflow=hidden;fillColor=none;top=0;left=0;bottom=0;right=0;pointerEvents=1;fontSize=16;" vertex="1" parent="BkDnircxusLfPPrno_NL-29">
          <mxGeometry width="115" height="70" as="geometry">
            <mxRectangle width="115" height="70" as="alternateBounds" />
          </mxGeometry>
        </mxCell>
        <mxCell id="BkDnircxusLfPPrno_NL-31" value="&lt;span style=&quot;font-size: 10px;&quot;&gt;Arah Alir Dokumen yang Dual Relasi&lt;/span&gt;" style="shape=partialRectangle;html=1;whiteSpace=wrap;connectable=0;strokeColor=inherit;overflow=hidden;fillColor=none;top=0;left=0;bottom=0;right=0;pointerEvents=1;fontSize=16;" vertex="1" parent="BkDnircxusLfPPrno_NL-29">
          <mxGeometry x="115" width="115" height="70" as="geometry">
            <mxRectangle width="115" height="70" as="alternateBounds" />
          </mxGeometry>
        </mxCell>
        <mxCell id="BkDnircxusLfPPrno_NL-33" style="shape=tableRow;horizontal=0;startSize=0;swimlaneHead=0;swimlaneBody=0;strokeColor=inherit;top=0;left=0;bottom=0;right=0;collapsible=0;dropTarget=0;fillColor=none;points=[[0,0.5],[1,0.5]];portConstraint=eastwest;fontSize=16;" vertex="1" parent="BkDnircxusLfPPrno_NL-1">
          <mxGeometry y="440" width="230" height="70" as="geometry" />
        </mxCell>
        <mxCell id="BkDnircxusLfPPrno_NL-34" style="shape=partialRectangle;html=1;whiteSpace=wrap;connectable=0;strokeColor=inherit;overflow=hidden;fillColor=none;top=0;left=0;bottom=0;right=0;pointerEvents=1;fontSize=16;" vertex="1" parent="BkDnircxusLfPPrno_NL-33">
          <mxGeometry width="115" height="70" as="geometry">
            <mxRectangle width="115" height="70" as="alternateBounds" />
          </mxGeometry>
        </mxCell>
        <mxCell id="BkDnircxusLfPPrno_NL-35" value="&lt;font style=&quot;font-size: 10px;&quot;&gt;Input yang dimasukkan melalui keyboard&lt;/font&gt;" style="shape=partialRectangle;html=1;whiteSpace=wrap;connectable=0;strokeColor=inherit;overflow=hidden;fillColor=none;top=0;left=0;bottom=0;right=0;pointerEvents=1;fontSize=16;" vertex="1" parent="BkDnircxusLfPPrno_NL-33">
          <mxGeometry x="115" width="115" height="70" as="geometry">
            <mxRectangle width="115" height="70" as="alternateBounds" />
          </mxGeometry>
        </mxCell>
        <mxCell id="BkDnircxusLfPPrno_NL-17" value="" style="shape=document;whiteSpace=wrap;html=1;boundedLbl=1;" vertex="1" parent="1">
          <mxGeometry x="270" y="80" width="80" height="40" as="geometry" />
        </mxCell>
        <mxCell id="BkDnircxusLfPPrno_NL-18" value="" style="shape=trapezoid;perimeter=trapezoidPerimeter;whiteSpace=wrap;html=1;fixedSize=1;rotation=-180;" vertex="1" parent="1">
          <mxGeometry x="270" y="140" width="80" height="30" as="geometry" />
        </mxCell>
        <mxCell id="BkDnircxusLfPPrno_NL-19" value="" style="shape=cylinder3;whiteSpace=wrap;html=1;boundedLbl=1;backgroundOutline=1;size=7.888885498046875;" vertex="1" parent="1">
          <mxGeometry x="285" y="190" width="50" height="60" as="geometry" />
        </mxCell>
        <mxCell id="BkDnircxusLfPPrno_NL-20" value="" style="rounded=0;whiteSpace=wrap;html=1;" vertex="1" parent="1">
          <mxGeometry x="270" y="270" width="80" height="40" as="geometry" />
        </mxCell>
        <mxCell id="BkDnircxusLfPPrno_NL-24" value="" style="ellipse;whiteSpace=wrap;html=1;aspect=fixed;" vertex="1" parent="1">
          <mxGeometry x="295" y="330" width="30" height="30" as="geometry" />
        </mxCell>
        <mxCell id="BkDnircxusLfPPrno_NL-28" value="" style="endArrow=classic;html=1;rounded=0;" edge="1" parent="1">
          <mxGeometry width="50" height="50" relative="1" as="geometry">
            <mxPoint x="285" y="430" as="sourcePoint" />
            <mxPoint x="335" y="380" as="targetPoint" />
          </mxGeometry>
        </mxCell>
        <mxCell id="BkDnircxusLfPPrno_NL-32" value="" style="endArrow=classic;startArrow=classic;html=1;rounded=0;" edge="1" parent="1">
          <mxGeometry width="50" height="50" relative="1" as="geometry">
            <mxPoint x="285" y="500" as="sourcePoint" />
            <mxPoint x="335" y="450" as="targetPoint" />
          </mxGeometry>
        </mxCell>
        <mxCell id="BkDnircxusLfPPrno_NL-36" value="" style="shape=manualInput;whiteSpace=wrap;html=1;" vertex="1" parent="1">
          <mxGeometry x="270" y="520" width="80" height="50" as="geometry" />
        </mxCell>
      </root>
    </mxGraphModel>
  </diagram>
</mxfile>
